HIERARCHY
ROOT root
{
	OFFSET	0	13.1	24.9
	CHANNELS 6  Xposition Yposition Zposition Xrotation Yrotation Zrotation
	JOINT spine_1
	{
		OFFSET	0	9.99999	0
		CHANNELS 3  Xrotation Yrotation Zrotation
		JOINT spine_2
		{
			OFFSET	0	112	-10
			CHANNELS 3  Xrotation Yrotation Zrotation
			JOINT spine_3
			{
				OFFSET	0	206.5	19.3
				CHANNELS 3  Xrotation Yrotation Zrotation
				JOINT spine_4
				{
					OFFSET	0	110.4	14.6
					CHANNELS 3  Xrotation Yrotation Zrotation
					JOINT neck_1
					{
						OFFSET	0	71.8	-50.3
						CHANNELS 3  Xrotation Yrotation Zrotation
						JOINT neck_2
						{
							OFFSET	0	86.2	-25.8
							CHANNELS 3  Xrotation Yrotation Zrotation
							JOINT head_ee
							{
								OFFSET	0	179.8	-8.7
								CHANNELS 3  Xrotation Yrotation Zrotation
								End Site
								{
									OFFSET	1	0	0
								}
							}
						}
					}
					JOINT left_clavicle
					{
						OFFSET	-43.2	22.4	-70.8
						CHANNELS 3  Xrotation Yrotation Zrotation
						JOINT left_shoulder
						{
							OFFSET	-93.9	-5.79999	48.7
							CHANNELS 3  Xrotation Yrotation Zrotation
							JOINT left_elbow
							{
								OFFSET	-291.4	-30.8	15.2
								CHANNELS 3  Xrotation Yrotation Zrotation
								JOINT left_lowarm_twist
								{
									OFFSET	-110.7	-3.89999	13.6
									CHANNELS 3  Xrotation Yrotation Zrotation
									JOINT left_hand
									{
										OFFSET	-110.7	-3.89999	13.6
										CHANNELS 3  Xrotation Yrotation Zrotation
										JOINT left_ee
										{
											OFFSET	-80.8	-5.10001	12.1
											CHANNELS 3  Xrotation Yrotation Zrotation
											End Site
											{
												OFFSET	1	0	0
											}
										}
									}
								}
							}
						}
					}
					JOINT right_clavicle
					{
						OFFSET	43.2	22.4	-70.8
						CHANNELS 3  Xrotation Yrotation Zrotation
						JOINT right_shoulder
						{
							OFFSET	93.9	-5.79999	48.7
							CHANNELS 3  Xrotation Yrotation Zrotation
							JOINT right_elbow
							{
								OFFSET	291.4	-30.8	15.2
								CHANNELS 3  Xrotation Yrotation Zrotation
								JOINT right_lowarm_twist
								{
									OFFSET	110.7	-3.89999	13.6
									CHANNELS 3  Xrotation Yrotation Zrotation
									JOINT right_hand
									{
										OFFSET	110.7	-3.89999	13.6
										CHANNELS 3  Xrotation Yrotation Zrotation
										JOINT right_ee
										{
											OFFSET	80.8	-5.10001	12.1
											CHANNELS 3  Xrotation Yrotation Zrotation
											End Site
											{
												OFFSET	1	0	0
											}
										}
									}
								}
							}
						}
					}
				}
			}
		}
	}
	JOINT left_hip
	{
		OFFSET	-82.8	-127.5	0.300001
		CHANNELS 3  Xrotation Yrotation Zrotation
		JOINT left_knee
		{
			OFFSET	-28.2	-396.7	2.2
			CHANNELS 3  Xrotation Yrotation Zrotation
			JOINT left_ankle
			{
				OFFSET	-11.7	-411.3	35.4
				CHANNELS 3  Xrotation Yrotation Zrotation
				JOINT left_toes
				{
					OFFSET	0	-60	-88.6
					CHANNELS 3  Xrotation Yrotation Zrotation
					JOINT left_foot_ee
					{
						OFFSET	-22.5	-16.5	-42.2
						CHANNELS 3  Xrotation Yrotation Zrotation
						End Site
						{
							OFFSET	1	0	0
						}
					}
				}
			}
		}
	}
	JOINT right_hip
	{
		OFFSET	82.8	-127.5	0.300001
		CHANNELS 3  Xrotation Yrotation Zrotation
		JOINT right_knee
		{
			OFFSET	28.2	-396.7	2.2
			CHANNELS 3  Xrotation Yrotation Zrotation
			JOINT right_ankle
			{
				OFFSET	11.7	-411.3	35.4
				CHANNELS 3  Xrotation Yrotation Zrotation
				JOINT right_toes
				{
					OFFSET	0	-60	-88.6
					CHANNELS 3  Xrotation Yrotation Zrotation
					JOINT right_foot_ee
					{
						OFFSET	22.5	-16.5	-42.2
						CHANNELS 3  Xrotation Yrotation Zrotation
						End Site
						{
							OFFSET	1	0	0
						}
					}
				}
			}
		}
	}
}
MOTION
Frames: 8
Frame Time: 0.02
1372.05 701.618 -1475.22 -17.2631622235 33.9098655722 6.26252534057 0.871515 0.161068 2.2932 0.87444 0.0148586 2.2988 0.875709 -0.434396 2.25745 0.868605 -0.0725201 2.2977 5.72504 0.636665 0.659576 5.72609 0.503441 0.788102 -0.0 0.0 -0.0 -0.22555 11.861 1.02299 -4.82513 -41.314 47.2039 4.00406 -63.2264 2.46521 -6.67534 -0.28247 0.80476 -1.57475 2.67876 -9.34864 -0.0 0.0 -0.0 7.06266 13.6374 -13.3464 -26.689 19.3986 -73.5631 0.329683 9.27559 -0.0267446 6.37131 -0.180516 0.793413 1.51409 -14.4729 -15.5558 0.0 0.0 0.0 0.469773 -5.6768 9.14646 -17.7317 0.315742 2.69192 37.1588 24.1496 -4.86154 4.1308 -0.0 -0.0 -0.0 0.0 -0.0 42.6792 27.03 3.20926 5.82658 0.2834 0.848569 -13.9742 1.30513 -2.1253 -17.7215 0.0 0.0 0.0 0.0 0.0 
1345.02247418 698.326 -1509.75192505 -17.1859685055 35.2932919851 5.48125547855 1.02932 0.33074 2.35526 1.03239 0.180242 2.37152 1.04058 -0.279481 2.36189 1.03281 0.0969339 2.37638 4.43357 1.89625 -0.896901 4.45797 4.04535 -0.912234 -0.0 0.0 -0.0 -0.903962 10.2723 -0.336826 -7.73796 -40.9767 47.3375 4.11793 -63.8661 2.56716 -5.50979 -0.22641 0.666667 -1.21127 2.05283 -7.19646 -0.0 0.0 -0.0 7.10895 11.9681 -13.5316 -26.2481 19.9256 -71.951 0.271957 7.67285 -0.0182371 5.40818 -0.15891 0.67228 0.67595 -16.0916 -10.7764 0.0 0.0 0.0 -1.52493 -4.91834 7.68823 -15.9596 0.321869 2.42012 36.4608 24.1592 -4.79066 2.48993 -0.0 -0.0 -0.0 0.0 -0.0 42.3724 28.2297 2.55538 -0.845949 -0.0339071 -0.125392 -13.4175 2.01938 -2.04417 -16.9383 0.0 0.0 0.0 0.0 0.0 
1330.91179885 697.012 -1535.18180703 -17.6507970885 36.0928031593 5.66370475499 1.24624 0.363788 2.37713 1.24936 0.211833 2.39544 1.2588 -0.243945 2.39239 1.25084 0.136837 2.40089 4.0432 2.30606 -1.34567 4.08408 5.14811 -1.38276 -0.0 0.0 -0.0 -0.95141 9.79366 -0.485121 -8.3833 -40.9071 47.6007 4.09804 -63.7565 2.54931 -5.16425 -0.210332 0.625514 -1.10827 1.90651 -6.57289 -0.0 0.0 -0.0 7.14225 11.4539 -13.6268 -26.0771 20.0817 -71.4623 0.260506 7.35339 -0.0167398 5.14581 -0.152671 0.639345 0.430757 -16.5469 -9.41239 0.0 0.0 0.0 -2.91467 -4.72081 7.22627 -15.8829 0.321944 2.40835 36.271 24.1705 -4.77146 2.0164 -0.0 -0.0 -0.0 0.0 -0.0 42.3102 28.5723 2.3635 -2.76992 -0.104096 -0.412307 -13.2661 2.1854 -2.02192 -16.715 0.0 0.0 0.0 0.0 0.0 
1312.68016124 700.872 -1567.78162979 -17.6794278369 37.091459166 5.6326110043 1.06781 0.377852 2.33471 1.07081 0.228565 2.35401 1.08093 -0.226988 2.35416 1.07323 0.147549 2.36046 2.92764 2.87445 -2.27706 3.00429 6.95177 -2.33389 -0.0 0.0 -0.0 -1.12221 11.7924 -0.494092 -10.7432 -39.3971 47.5478 3.73086 -61.5668 2.22308 -5.38 -0.220341 0.651221 -1.00187 1.42202 -6.07656 -0.0 0.0 -0.0 7.34112 10.6425 -14.0853 -25.4613 20.3491 -71.3872 0.294856 8.3102 -0.0214205 4.97348 -0.148491 0.617728 0.301539 -15.9916 -8.40088 0.0 0.0 0.0 -4.47966 -4.80988 7.22648 -16.638 0.320516 2.52419 36.072 23.7486 -4.73932 1.68443 -0.0 -0.0 -0.0 0.0 -0.0 42.1345 28.8299 2.19112 -4.64587 -0.16321 -0.694127 -13.1377 2.98608 -2.0077 -16.5589 0.0 0.0 0.0 0.0 0.0 
1279.57201831 712.468 -1608.04991306 -17.5038506331 37.8541271353 6.45533354812 1.41395 0.505661 2.34033 1.41693 0.355758 2.36774 1.43216 -0.0900068 2.39261 1.42429 0.288882 2.37682 2.61725 4.40721 -2.55515 2.75215 9.87011 -2.51441 -0.0 0.0 -0.0 -1.72287 14.0795 -1.14368 -13.8387 -37.2956 48.7227 3.40715 -59.3397 1.94141 -3.77445 -0.148185 0.459052 -0.636846 2.88252 -3.00675 -0.0 0.0 -0.0 7.58096 8.38197 -14.6711 -23.4736 21.2327 -70.4986 0.353644 9.93671 -0.030743 3.00765 -0.0962181 0.372065 -0.170028 -15.6115 -5.32635 0.0 0.0 0.0 -3.60555 -4.53869 6.67478 -20.9444 0.283218 3.18373 31.8234 23.5566 -4.27932 1.54048 -0.0 -0.0 -0.0 0.0 -0.0 40.7862 28.1626 -0.0677778 -9.5724 -0.274217 -1.44177 -7.1909 4.63175 -1.09689 -17.3405 0.0 0.0 0.0 0.0 0.0 
1261.83162422 707.969 -1630.55085973 -16.0630228453 36.8699539329 4.79796390464 1.69612 0.615969 2.48881 1.69945 0.456403 2.52293 1.71993 -0.00695297 2.56385 1.71098 0.397914 2.53281 2.11748 5.06217 -2.35394 2.26365 10.8651 -2.19939 -0.0 0.0 -0.0 -2.07821 14.8442 -1.59457 -15.5128 -36.5404 49.7731 3.22085 -57.9094 1.78235 -2.31332 -0.0872307 0.282497 -0.427173 3.5216 -1.34451 -0.0 0.0 -0.0 7.65927 7.62582 -14.8557 -21.9994 22.0036 -69.4231 0.382252 10.7226 -0.0358731 1.81397 -0.0603718 0.223808 -0.393496 -15.4177 -3.86465 0.0 0.0 0.0 -2.5655 -4.50712 5.6116 -23.957 0.227716 3.64263 29.3281 23.8287 -4.00248 1.56502 -0.0 -0.0 -0.0 0.0 -0.0 40.1547 27.7023 -1.24859 -11.3825 -0.298795 -1.71841 -3.13147 5.06764 -0.47476 -18.4196 0.0 0.0 0.0 0.0 0.0 
1247.93577685 712.894 -1648.02885814 -16.0549046373 35.7370065456 5.15792999859 1.91307 0.697337 2.57987 1.91661 0.531818 2.61898 1.94114 0.060265 2.67172 1.93151 0.481309 2.62873 1.73328 5.52736 -2.176 1.8856 11.5504 -1.93117 -0.0 0.0 -0.0 -2.34582 15.4611 -1.91794 -16.793 -36.036 50.5708 3.07952 -56.7424 1.66337 -1.29054 -0.0472555 0.158027 -0.283267 4.01899 -0.183468 -0.0 0.0 -0.0 7.75093 7.12315 -15.0595 -20.524 22.6501 -68.7222 0.40697 11.3983 -0.040615 0.979322 -0.0334745 0.120596 -0.557001 -15.285 -2.79826 0.0 0.0 0.0 -1.69356 -4.53848 5.08852 -26.0769 0.174228 3.96355 27.5752 23.9914 -3.80026 1.58349 -0.0 -0.0 -0.0 0.0 -0.0 39.6305 27.3828 -2.02373 -12.6778 -0.311011 -1.91677 -0.220748 5.39752 -0.0332854 -19.15 0.0 0.0 0.0 0.0 0.0 
1233.47771191 713.142 -1669.68410973 -17.0048314671 35.225422591 5.52823326837 2.02083 0.625552 2.44006 2.02402 0.469066 2.47489 2.04435 0.0284678 2.51876 2.03575 0.425778 2.4827 0.682618 6.58011 -3.34101 0.915053 14.4246 -3.00727 -0.0 0.0 -0.0 -2.58423 16.4771 -2.11364 -18.4577 -35.6791 51.7856 2.91441 -55.2804 1.52646 -0.0879297 -0.00310641 0.0107999 -0.381722 4.64551 -0.565814 -0.0 0.0 -0.0 7.85433 6.83668 -15.2821 -18.7309 23.2069 -68.0102 0.450837 12.5896 -0.0497317 0.391846 -0.0136414 0.0481849 -0.663392 -14.9584 -2.00249 0.0 0.0 0.0 4.80534 -4.45794 5.61924 -39.6954 -0.447503 5.95561 29.5179 22.8996 -4.00442 3.61735 -0.0 -0.0 -0.0 0.0 -0.0 39.4692 26.9366 -2.33511 -13.5859 -0.316901 -2.05599 4.79643 4.33595 0.71001 -20.3707 0.0 0.0 0.0 0.0 0.0 
